<svg width="5200" height="880" viewBox="0 0 5200 880" fill="none" xmlns="http://www.w3.org/2000/svg">
<rect width="5200" height="880" fill="#1E1E1E"/>
<g clip-path="url(#clip0_0_1)">
<path d="M426.628 488.042C425.832 487.851 424.927 487.539 424.616 487.347C424.305 487.155 422.269 486.522 420.09 485.94C416.971 485.107 415.654 484.966 413.899 485.277C408.635 486.209 406.472 486.473 405.812 486.261C404.194 485.742 397.1 482.701 396.612 482.317C396.321 482.088 394.317 481.294 392.16 480.553C390.002 479.812 387.428 478.857 386.438 478.431C385.449 478.005 383.445 477.441 381.986 477.178C380.526 476.915 377.645 476.19 375.583 475.569C373.521 474.947 368.881 474.119 365.272 473.729C358.122 472.955 350.251 470.643 348.548 468.815C348.06 468.291 347.497 467.862 347.298 467.862C347.1 467.862 344.661 465.67 341.879 462.991C337.235 458.518 336.555 458.036 333.549 457.087C331.459 456.428 329.655 456.145 328.558 456.305C318.946 457.71 314.356 457.983 307.625 457.551C303.188 457.266 298.867 456.678 295.908 455.956C293.331 455.328 289.463 454.573 287.314 454.279C285.164 453.986 282.046 453.326 280.384 452.812C276.056 451.475 265.753 450.057 260.353 450.054C255.932 450.052 246.06 448.668 238.057 446.928C234.08 446.063 226.591 446.285 220.513 447.448C215.921 448.327 215.342 448.677 214.649 450.989C213.368 455.264 210.832 455.806 205.512 452.941C203.676 451.953 200.953 450.747 199.461 450.261L196.749 449.378L192.9 450.723C190.783 451.462 188.734 452.322 188.347 452.634C187.961 452.946 186.484 453.753 185.067 454.429C183.649 455.105 181.606 456.347 180.526 457.19C179.446 458.033 177.243 459.754 175.631 461.014C174.018 462.275 170.895 464.173 168.689 465.232L164.679 467.159H157.649C151.339 467.159 150.187 467.028 146.401 465.881C144.081 465.179 140.601 464.372 138.668 464.089C136.735 463.805 133.782 463.177 132.106 462.693C130.431 462.208 126.32 461.462 122.97 461.033C115.808 460.117 112.207 460.511 107.331 462.746C105.691 463.497 104.08 464.112 103.752 464.112C103.423 464.112 102.081 464.851 100.769 465.753C99.4576 466.655 98.1885 467.393 97.9489 467.393C97.7093 467.393 96.5969 468.153 95.477 469.081C94.3571 470.009 92.6177 471.433 91.6117 472.244C90.6057 473.056 89.2763 474.196 88.6575 474.778C87.6726 475.705 86.1805 476.877 81.0721 480.737C80.3995 481.245 79.5855 482.019 79.2632 482.457C78.9408 482.895 77.6264 483.602 76.3422 484.029C74.3872 484.678 73.5884 484.717 71.4333 484.27C70.0177 483.976 67.9577 483.257 66.8555 482.672C65.7534 482.087 63.9199 481.459 62.781 481.278C60.831 480.968 59.5105 479.99 59.4768 478.831C59.4687 478.549 59.9904 477.706 60.6364 476.957C61.2824 476.208 61.9296 475.225 62.0746 474.773C62.2197 474.321 62.8374 473.688 63.4473 473.367C64.0573 473.046 65.0446 472.059 65.6413 471.175C66.9377 469.253 68.6733 468.668 71.9539 469.046C73.4613 469.219 74.4862 469.135 74.6798 468.822C74.9823 468.332 77.9596 466.252 82.4258 463.409C83.6408 462.636 85.2851 461.582 86.08 461.066C88.0991 459.756 90.198 458.452 92.4922 457.082C96.139 454.904 98.5844 453.217 101.643 450.77C105.801 447.442 105.917 447.395 111.987 446.563C119.265 445.566 130.469 443.544 133.044 442.763C137.99 441.263 142.835 439.373 144.172 438.421C144.962 437.858 145.799 437.398 146.033 437.398C146.586 437.398 150.437 432.848 151.288 431.188C151.652 430.479 152.118 429.899 152.324 429.899C152.53 429.899 152.975 429.371 153.313 428.726C153.651 428.08 156.25 425.18 159.088 422.281C165.541 415.691 167.685 411.791 167.019 407.852L166.706 405.997H164.016C161.024 405.997 153.132 408.355 151.556 409.72C151.041 410.166 149.776 411.027 148.744 411.632C145.976 413.256 144.358 414.613 138.7 420.057C130.055 428.375 127.264 430.781 121.574 434.82C116.934 438.113 112.229 440.861 109.999 441.579C109.053 441.883 108.024 442.44 107.712 442.816C107.399 443.192 105.959 443.841 104.511 444.258C103.062 444.675 100.886 445.515 99.6742 446.124C98.3869 446.772 95.5389 447.522 92.8211 447.931C90.2635 448.315 86.8257 448.946 85.1817 449.334C83.5377 449.721 80.1695 450.041 77.6968 450.045C73.9255 450.05 72.8815 449.882 71.2192 448.998C70.1293 448.418 68.8834 447.348 68.4506 446.621C67.6939 445.35 67.7031 445.267 68.6926 444.458C69.5933 443.721 70.789 443.61 78.3004 443.565C84.0414 443.531 87.6546 443.299 89.2228 442.863C96.7455 440.772 100.591 439.558 101.51 438.983C102.082 438.626 103.664 437.896 105.025 437.362C106.387 436.827 107.923 436.009 108.438 435.543C108.954 435.077 110.114 434.326 111.016 433.874C111.918 433.422 113.5 432.347 114.531 431.485C115.562 430.623 117.039 429.391 117.812 428.746C118.585 428.102 122.225 424.67 125.9 421.121C137.366 410.046 143.169 405.033 145.642 404.066C146.256 403.826 147.381 403.186 148.143 402.644C149.506 401.673 154.923 399.562 159.524 398.209C162.236 397.412 169.654 397.283 173.153 397.973C175.121 398.362 176.46 398.25 180.886 397.329C183.83 396.716 186.977 395.984 187.879 395.702C191.55 394.556 205.461 394.132 219.884 394.725C238.528 395.493 254.279 394.755 264.038 392.656C272.744 390.784 280.988 389.513 290.05 388.645C299.628 387.729 303.769 387.072 306.097 386.099C306.948 385.743 310.527 385.013 314.052 384.475C317.576 383.937 320.969 383.304 321.592 383.067C322.214 382.83 325.548 382.185 329 381.632C332.452 381.08 336.964 380.129 339.026 379.519C341.088 378.908 344.53 378.061 346.675 377.636C348.819 377.211 351.245 376.586 352.065 376.245C352.884 375.905 355.664 375.293 358.242 374.886C360.82 374.478 364.932 373.733 367.381 373.231C369.83 372.728 373.054 372.172 374.546 371.994C376.038 371.816 377.689 371.322 378.217 370.895C379.112 370.17 379.128 370.027 378.46 368.725C375.522 362.994 375.516 362.591 378.359 361.949C380.07 361.564 380.157 361.614 383.19 364.764C386.011 367.692 386.548 368.037 389.367 368.735C396.906 370.6 402.357 372.323 403.904 373.33C409.702 377.103 411.089 378.162 412.516 379.91C413.392 380.982 414.539 382.836 415.064 384.029C416.407 387.076 421.181 391.311 426.668 394.321C427.7 394.886 429.775 396.184 431.281 397.205C433.919 398.992 434.009 399.12 433.716 400.676C432.969 404.66 428.285 410.248 424.482 411.693C419.881 413.441 411.147 412.503 404.4 409.537C401.562 408.289 399.466 407.74 396.063 407.354C388.488 406.494 373.668 407.715 369.345 409.556C368.394 409.961 366.245 410.719 364.569 411.241C359.647 412.775 355.942 414.715 354.152 416.696C352.435 418.596 351.001 422.416 350.89 425.386C350.826 427.083 352.34 430.606 354 432.626C354.568 433.317 355.404 434.832 355.856 435.992C356.309 437.152 357.077 438.748 357.564 439.539C358.05 440.33 358.75 442.274 359.12 443.86C359.797 446.763 360.955 448.699 362.777 449.975C363.523 450.497 366.123 450.752 373.423 451.018C378.735 451.212 383.641 451.588 384.325 451.854C386.823 452.825 391.32 453.353 400.69 453.773C409.38 454.163 410.692 454.336 414.892 455.643C417.437 456.434 419.733 457.082 419.993 457.082C420.641 457.082 427.542 460.592 430.418 462.384C431.707 463.187 433.921 464.989 435.339 466.389C436.757 467.788 438.658 469.402 439.564 469.974C442.567 471.871 442.607 472.019 441.463 476.971C440.366 481.716 440.57 481.431 435.164 485.792C433.51 487.126 430.174 488.52 428.836 488.435C428.417 488.409 427.423 488.232 426.628 488.042ZM433.211 476.51C434.149 475.27 434.119 475.15 432.688 474.385C432.004 474.02 430.322 472.315 428.951 470.597C427.091 468.266 426.068 467.39 424.923 467.145C424.078 466.965 421.911 466.341 420.107 465.758C416.555 464.611 414.12 464.313 403 463.665C394.8 463.187 389.775 463.545 388.631 464.689C387.93 465.39 388.103 465.562 390.866 466.901C392.513 467.7 395.654 469.296 397.845 470.449C400.036 471.601 403.305 472.956 405.109 473.46C406.914 473.964 409.612 474.814 411.106 475.35C414.117 476.429 424.941 477.708 429.594 477.535C431.863 477.45 432.674 477.221 433.211 476.51ZM407.232 387C407.716 386.416 407.711 386.062 407.21 385.125C406.869 384.489 406.451 383.969 406.281 383.969C406.11 383.969 405.692 384.489 405.352 385.125C404.85 386.062 404.846 386.416 405.33 387C405.658 387.395 406.086 387.719 406.28 387.719C406.475 387.719 406.903 387.395 407.232 387Z" fill="black"/>
<path d="M518.559 307.395H1.44048V572.605H518.559V307.395Z" stroke="black" stroke-width="2.46781"/>
</g>
<g clip-path="url(#clip1_0_1)">
<path d="M930.101 518.581C929.025 518.232 925.409 515.921 923.976 514.668C923.443 514.202 921.275 513.189 919.159 512.416C914.791 510.822 911.433 510.612 908.251 511.735C904.747 512.971 903.174 512.033 894.482 503.521C884.024 493.28 875.298 485.915 870.967 483.673C870.238 483.296 868.463 482.175 867.022 481.182C858.978 475.639 859.051 475.705 851.139 466.81C846.018 461.054 844.749 460.317 841.11 460.987C837.03 461.738 825.186 461.129 821.134 459.96C819.201 459.402 815.404 458.425 812.698 457.788C809.991 457.15 807.039 456.322 806.136 455.947C805.234 455.572 802.703 454.823 800.512 454.282C798.321 453.741 794.63 452.694 792.311 451.954C789.991 451.214 786.616 450.142 784.812 449.571C783.007 449 778.684 447.81 775.204 446.926C760.294 443.138 755.063 442.333 745.912 442.413C738.003 442.483 735.165 443.101 734.222 444.96C733.904 445.588 733.34 446.733 732.967 447.507C732.426 448.632 731.949 448.941 730.582 449.056C729.191 449.173 728.243 448.781 725.486 446.947C722.296 444.826 721.917 444.695 719.007 444.695C716.199 444.695 715.595 444.883 712.402 446.758C708.347 449.139 702.988 453.649 699.279 457.804C694.603 463.041 693.289 463.979 689.139 465.038C684.178 466.305 678.257 466.712 674.439 466.048C672.763 465.757 668.123 464.997 664.128 464.36C660.133 463.723 655.809 462.9 654.52 462.531C651.081 461.546 643.532 461.097 641.53 461.758C639.626 462.386 636.189 466.508 634.346 470.374C633.706 471.716 632.88 473.342 632.511 473.987C630.233 477.965 626.084 489.151 625.47 492.968C625.304 493.999 624.839 495.762 624.437 496.886C623.729 498.864 623.652 498.922 622.065 498.664C619.862 498.307 618.865 497.303 617.749 494.319C616.56 491.14 616.833 489.595 619.255 485.808C621.191 482.782 624.205 475.053 624.613 472.07C624.773 470.901 624.611 470.156 624.082 469.627C623.378 468.923 623.249 468.936 622.399 469.786C621.893 470.292 621.281 470.706 621.039 470.706C620.796 470.706 619.641 471.497 618.472 472.464C613.215 476.808 611.534 477.884 605.075 481.033C602.427 482.324 599.844 483.179 597.37 483.586C593.334 484.248 591.726 483.925 591.227 482.354C590.81 481.039 592.685 478.191 595.347 476.096C598.514 473.603 599.278 473.233 601.972 472.881C604.831 472.507 606.801 471.328 610.808 467.59C612.543 465.971 614.546 464.28 615.26 463.831C615.974 463.383 617.344 462.374 618.305 461.588C622.25 458.365 623.193 457.677 624.759 456.881C625.662 456.422 627.093 455.444 627.939 454.706C628.786 453.969 629.647 453.365 629.852 453.365C630.057 453.365 630.512 452.828 630.863 452.172C631.841 450.347 635.63 447.854 637.95 447.512C639.073 447.346 646.529 447.054 654.52 446.862L669.049 446.512L672.616 444.844C674.578 443.926 676.368 442.885 676.593 442.529C676.818 442.174 677.039 439.352 677.084 436.259C677.189 429.071 677.696 420.855 678.182 418.449C679.286 412.995 681.568 405.348 682.413 404.274C683.657 402.692 682.927 401.843 680.232 401.737C678.295 401.661 673.032 403.909 669.443 406.345C668.568 406.938 667.202 407.76 666.408 408.171C665.614 408.581 660.43 413.446 654.888 418.98C644.45 429.405 640.3 433.146 637.739 434.44C636.916 434.856 635.811 435.59 635.283 436.071C634.756 436.552 633.385 437.442 632.237 438.05C631.089 438.658 629.306 439.602 628.274 440.149C624.31 442.253 620.189 443.959 617.281 444.701C615.617 445.126 613.719 445.75 613.063 446.089C610.583 447.37 594.897 448.927 591.711 448.208C590.735 447.988 589.493 447.358 588.952 446.809L587.969 445.809L589.03 444.937C589.726 444.365 591.177 443.973 593.248 443.798C603.786 442.908 616.71 439.678 623.588 436.216C630.146 432.914 633.423 430.256 643.722 419.883C647.321 416.259 651.295 412.163 652.553 410.78C654.897 408.206 661.015 402.695 664.362 400.142C668.047 397.333 673.294 394.849 678.002 393.685C684.809 392.003 686.108 391.9 690.635 392.69C694.31 393.33 695.117 393.331 698.299 392.696C700.256 392.306 703.86 391.741 706.309 391.441C712.327 390.704 740.787 390.689 762.55 391.411C775.736 391.849 786.913 391.878 807.308 391.528C833.264 391.083 841.113 390.672 843.901 389.612C844.592 389.349 847.754 388.712 850.927 388.196C854.1 387.68 858.343 386.835 860.357 386.318C862.37 385.8 866.232 385.051 868.939 384.653C871.645 384.255 875.427 383.524 877.342 383.029C879.316 382.519 884.085 381.915 888.355 381.635C892.498 381.363 896.837 380.994 897.997 380.814C900.506 380.424 900.544 380.007 898.438 375.898C897.267 373.614 897.133 373.02 897.592 372.148C898.138 371.111 898.885 370.43 899.493 370.417C899.671 370.413 901.24 372.084 902.979 374.129C906.566 378.35 907.354 378.759 914.665 380.203C923.841 382.015 924.267 382.295 934.8 393.422C936.612 395.336 939.143 397.45 940.424 398.121C941.706 398.792 944.226 400.111 946.024 401.052C950.492 403.391 952.831 405.727 952.831 407.849C952.831 411.844 946.526 417.382 940.917 418.311C937.164 418.933 932.876 418.333 928.563 416.579C924.279 414.838 917.652 414.29 905.027 414.633C899.227 414.791 893.216 415.144 891.669 415.419C888.281 416.021 878.899 419.05 878.519 419.665C878.371 419.906 877.367 420.55 876.289 421.096C874.329 422.09 870.138 425.319 869.082 426.649C867.574 428.549 867.368 429.41 867.956 431.371C868.45 433.019 868.875 433.454 870.961 434.445C873.535 435.667 876.543 437.343 879.25 439.064C886.611 443.744 905.13 453.388 908.159 454.119C908.885 454.294 910.639 455.014 912.057 455.718C913.475 456.422 915.373 457.154 916.275 457.344C917.177 457.535 919.119 458.193 920.59 458.806C923.018 459.819 925.484 460.562 935.146 463.193C939.835 464.47 959.401 465.026 963.314 463.993C964.827 463.594 966.52 462.839 967.077 462.316C967.634 461.793 968.981 461.05 970.071 460.665C972 459.985 972.071 459.996 972.781 461.08C973.879 462.756 973.195 465.362 970.959 468.016C968.287 471.189 966.425 471.658 957.879 471.312C951.511 471.054 950.958 471.105 946.761 472.34C943.101 473.417 941.795 473.593 939.135 473.37C937.37 473.222 935.247 472.751 934.419 472.322C930.732 470.415 920.533 467.485 915.764 466.964C913.081 466.67 909.303 466.228 907.37 465.981C905.437 465.734 900.375 465.105 896.122 464.584C888.037 463.593 885.07 462.983 880.466 461.367C877.05 460.168 876.33 460.157 875.305 461.29C873.55 463.229 875.475 466.36 884.768 476.685C891.243 483.878 897.86 491.102 899.43 492.692C900.089 493.359 901.768 495.171 903.16 496.718C907.291 501.307 908.782 502.167 913.92 502.924C916.375 503.285 919.649 504.079 921.196 504.688C922.743 505.297 925.817 506.101 928.027 506.474C932.838 507.287 938.055 509.961 940.737 512.989C942.371 514.833 942.42 514.978 941.602 515.551C941.125 515.885 939.608 516.394 938.23 516.683C936.852 516.971 935.067 517.606 934.264 518.093C932.768 519 931.754 519.119 930.101 518.581ZM926.534 393.671C927.392 392.637 926.036 391.853 924.038 392.228C921.945 392.621 921.505 393.249 922.923 393.818C924.516 394.456 925.93 394.399 926.534 393.671Z" fill="black"/>
<path d="M1038.56 307.395H521.441V572.605H1038.56V307.395Z" stroke="black" stroke-width="2.46781"/>
</g>
<g clip-path="url(#clip2_0_1)">
<path d="M1308.45 518.377C1303.38 518.076 1302.48 517.893 1300.88 516.83C1298.41 515.198 1297.85 513.331 1298.14 507.66C1298.33 503.706 1298.55 502.801 1299.92 500.209C1301.29 497.613 1301.47 496.873 1301.39 494.04C1301.27 489.593 1301.76 488.52 1305.8 484.459C1306.34 483.918 1307.78 482.315 1309 480.898C1310.22 479.48 1311.64 477.857 1312.15 477.292C1312.66 476.727 1314.21 474.512 1315.6 472.371C1317 470.23 1318.57 467.917 1319.1 467.232C1319.7 466.451 1320.06 465.284 1320.06 464.107C1320.06 462.488 1319.84 462.095 1318.52 461.278C1317.68 460.756 1315.83 459.122 1314.42 457.647C1312.06 455.179 1310.95 453.744 1307.66 448.922C1304.57 444.387 1297.62 438.876 1293.34 437.572C1292.18 437.218 1290.42 436.581 1289.43 436.156C1287 435.116 1280.03 434.624 1279.06 435.425C1278.62 435.791 1278.35 436.799 1278.35 438.045C1278.35 439.486 1278.04 440.409 1277.29 441.242C1276.24 442.413 1276.23 442.414 1272.72 441.784C1270.31 441.352 1268.41 441.282 1266.69 441.561C1263.93 442.006 1262.92 442.543 1260.43 444.891C1258.99 446.256 1258.72 446.888 1258.24 449.965C1257.94 451.898 1257.37 454.851 1256.96 456.526C1256.55 458.202 1256.06 460.311 1255.87 461.213C1255.03 465.157 1254.21 466.237 1250.75 467.981C1246.72 470.011 1242.53 470.558 1234.76 470.07C1227.08 469.588 1212.98 466.166 1205.86 463.058C1203.27 461.923 1201.43 462.389 1200.93 464.306C1200.56 465.755 1202.22 472.74 1204.22 478.085C1206.72 484.796 1208.18 491.362 1208.23 496.129C1208.3 502.591 1208.07 503.249 1205.65 503.479C1203.77 503.658 1203.65 503.581 1201.84 501.129L1199.96 498.595L1200.28 494.081C1200.63 489.119 1199.95 485.232 1197.29 476.914C1196.55 474.594 1195.15 469.968 1194.19 466.635C1192.57 460.982 1192.47 460.285 1192.73 456.273C1193 452.155 1192.96 451.926 1191.88 450.91L1190.75 449.849L1189.21 450.751C1188.36 451.247 1187.41 452.169 1187.09 452.801C1185.69 455.558 1183.96 460.402 1182.74 464.963C1178.56 480.644 1172.07 488.664 1164.12 487.977C1163.8 487.95 1163.21 487.418 1162.8 486.795C1162.18 485.852 1162.15 485.322 1162.59 483.631C1163.02 481.977 1163.93 480.819 1167.54 477.382C1172.48 472.668 1171.94 473.797 1175.92 459.807C1176.76 456.843 1178.02 452.414 1178.72 449.965C1181.07 441.717 1182.35 439.093 1184.62 437.878C1186.27 436.999 1192.16 437.442 1195.62 438.706C1197.17 439.27 1200.23 440.207 1202.42 440.789C1206.02 441.745 1208.69 442.551 1215.07 444.604C1217.82 445.489 1218.5 445.459 1219.82 444.388C1220.85 443.556 1220.88 443.366 1220.37 441.448C1219.94 439.84 1219.96 438.335 1220.47 434.455C1221.04 430.156 1221.03 429.089 1220.42 426.264C1220.04 424.478 1219.56 421.078 1219.35 418.709C1219.1 415.933 1218.67 413.954 1218.14 413.145L1217.32 411.888L1212.1 412.123C1207.91 412.311 1206.31 412.595 1204.06 413.546C1202.51 414.2 1200.56 414.992 1199.71 415.306C1198.86 415.621 1197.41 416.482 1196.48 417.221C1195.55 417.96 1194.59 418.564 1194.34 418.564C1193.97 418.564 1190.65 420.859 1184.52 425.36C1178.99 429.417 1171.52 434.516 1170.63 434.846C1170.2 435.004 1169.21 435.597 1168.44 436.164C1167.67 436.731 1166.19 437.455 1165.16 437.774C1164.13 438.092 1162.43 438.839 1161.39 439.433C1160.35 440.028 1158.14 440.859 1156.47 441.28C1154.81 441.701 1152.18 442.501 1150.63 443.058C1148.1 443.968 1146.86 444.071 1138.21 444.082L1128.6 444.094L1123.21 442.275C1120.25 441.274 1117.56 440.25 1117.24 439.998C1116.92 439.746 1116.65 438.729 1116.65 437.739C1116.65 435.17 1117.84 434.62 1120.68 435.874C1128.52 439.345 1147.82 439.504 1154.85 436.156C1161.28 433.097 1162.47 432.51 1163.99 431.666C1164.89 431.164 1166.37 430.22 1167.27 429.567C1170.45 427.266 1172.21 426.055 1173.53 425.243C1174.26 424.792 1176.27 423.258 1177.99 421.834C1180.92 419.403 1182.31 418.442 1188.8 414.332C1199.59 407.492 1210.16 404.429 1220.05 405.274C1223.81 405.596 1226.37 404.987 1228.2 403.332C1228.84 402.75 1230.21 401.723 1231.24 401.05C1232.27 400.376 1234.28 398.987 1235.7 397.962C1237.11 396.937 1239.33 395.576 1240.62 394.939C1241.91 394.301 1243.49 393.459 1244.13 393.068C1245.23 392.401 1249.23 390.698 1253.08 389.256C1255.57 388.323 1264.66 387.163 1269.48 387.163C1274.6 387.163 1286.06 388.37 1289.59 389.284C1291.01 389.65 1293.96 390.397 1296.16 390.943C1300.32 391.981 1302.5 392.648 1305.95 393.935C1307.08 394.358 1310.15 395.004 1312.76 395.371C1315.37 395.738 1318.37 396.339 1319.41 396.708C1320.45 397.076 1322.87 397.617 1324.78 397.909C1326.7 398.202 1330.16 399.047 1332.48 399.787C1334.8 400.528 1338.17 401.556 1339.98 402.072C1341.78 402.588 1344.16 403.348 1345.26 403.759C1347.4 404.56 1360.23 406.58 1368.33 407.395C1371.04 407.667 1376.42 407.77 1380.28 407.625C1386.22 407.402 1388.33 407.104 1393.87 405.702C1397.48 404.789 1401.28 403.648 1402.31 403.167C1403.34 402.685 1405.44 401.927 1406.98 401.482C1408.51 401.036 1410.73 400.189 1411.9 399.598C1413.07 399.008 1414.9 398.378 1415.98 398.2C1417.05 398.021 1418.28 397.612 1418.72 397.29C1419.47 396.745 1419.46 396.584 1418.51 394.864C1417.96 393.851 1417.07 392.323 1416.53 391.47C1415.74 390.222 1415.63 389.627 1415.98 388.427C1416.58 386.303 1417.69 386.334 1419.67 388.529C1422.7 391.884 1424.04 392.44 1428.69 392.287C1436.9 392.018 1438.45 392.203 1442.37 393.927C1445.75 395.412 1449.07 397.539 1451.58 399.829C1455.21 403.142 1462.29 406.616 1468.84 408.301C1473.48 409.493 1474.06 409.806 1474.98 411.59C1476.48 414.479 1474.62 418.277 1469.56 422.678C1466.05 425.734 1462.89 426.532 1454.31 426.532C1446.46 426.532 1438.38 427.648 1433.48 429.412C1432.06 429.922 1429.42 430.716 1427.62 431.177C1424.2 432.051 1417.51 435.125 1415.37 436.805C1414.69 437.341 1413.9 437.78 1413.61 437.781C1413.32 437.782 1411.82 438.625 1410.28 439.655C1402.26 444.992 1400.52 446.404 1393.41 453.272C1391.09 455.513 1387.29 459.024 1384.97 461.076C1382.65 463.127 1379.59 465.907 1378.17 467.252C1375.29 469.99 1370.46 473.01 1367.62 473.857C1364.86 474.682 1364.06 475.447 1363.78 477.571L1363.52 479.473L1365.81 480.421C1367.07 480.942 1368.62 481.684 1369.27 482.07C1369.91 482.456 1372.97 484.16 1376.06 485.858C1383.96 490.19 1385.93 491.344 1386.92 492.214C1387.39 492.632 1388.62 493.421 1389.66 493.966C1390.69 494.512 1392.8 495.911 1394.34 497.076C1395.89 498.241 1398.31 499.747 1399.73 500.423C1401.15 501.099 1402.64 501.932 1403.03 502.275C1403.43 502.618 1406.07 503.658 1408.89 504.587C1415.39 506.724 1422.05 507.276 1425.91 505.996C1428.24 505.222 1428.39 505.225 1429.85 506.073C1431.62 507.105 1432.11 508.895 1430.86 509.805C1430.41 510.138 1429.7 510.914 1429.3 511.531C1428.89 512.148 1427.64 513.417 1426.52 514.351C1423.85 516.575 1421.93 516.596 1417.13 514.453C1415.17 513.575 1412.36 512.485 1410.89 512.032C1408.4 511.262 1407.99 511.257 1404.82 511.951C1401.62 512.654 1401.34 512.648 1399.76 511.84C1398.84 511.369 1397.56 510.41 1396.92 509.709C1394.6 507.18 1390.26 504.201 1383.33 500.361C1381.65 499.433 1379.54 498.229 1378.64 497.686C1374.97 495.47 1372.66 494.227 1370.44 493.258C1363.55 490.253 1357.47 487.745 1354.97 486.871C1350.52 485.315 1348.13 483.686 1346.69 481.226C1345.24 478.763 1345.28 477.357 1346.88 474.156C1347.79 472.337 1347.79 472.336 1346.8 471.344C1345.95 470.494 1345.1 470.319 1340.79 470.118C1336.52 469.919 1335.48 470.017 1333.88 470.765C1332.85 471.25 1331.87 471.882 1331.7 472.171C1331.53 472.46 1329.06 475.543 1326.22 479.023C1323.37 482.503 1320.47 486.058 1319.76 486.923C1319.05 487.789 1317.88 489.371 1317.15 490.439C1316.43 491.506 1315.19 493.224 1314.41 494.255C1312.17 497.197 1309.62 500.938 1308.29 503.249C1307.22 505.094 1307.12 505.597 1307.51 507.162C1307.87 508.568 1308.34 509.132 1309.68 509.76C1312.44 511.054 1317.25 514.809 1317.25 515.666C1317.25 517.437 1316.34 518.861 1315.27 518.789C1314.68 518.75 1311.61 518.565 1308.45 518.377ZM1448.15 407.02C1448.31 406.857 1448.23 406.327 1447.97 405.841C1447.52 404.994 1447.45 404.992 1446.39 405.786C1445.43 406.504 1445.39 406.655 1446.06 406.931C1447.08 407.352 1447.78 407.382 1448.15 407.02Z" fill="black"/>
<path d="M1558.56 307.395H1041.44V572.605H1558.56V307.395Z" stroke="black" stroke-width="2.46781"/>
</g>
<g clip-path="url(#clip3_0_1)">
<path d="M1869.11 518.56C1867.39 517.798 1865.26 515.96 1860.85 511.417C1856.99 507.437 1854.13 504.897 1852.65 504.146C1849.25 502.423 1848.62 500.803 1849.22 495.274C1849.48 492.893 1849.83 489.205 1849.99 487.079C1850.28 483.322 1850.26 483.212 1849.26 483.212C1848.7 483.212 1847.06 484.109 1845.62 485.204C1841.83 488.086 1840.69 488.909 1838.38 490.434C1837.25 491.183 1835.48 492.368 1834.45 493.067C1832.65 494.285 1831.7 494.821 1824.2 498.819C1817.14 502.581 1814.9 503.01 1805.19 502.458C1797.44 502.018 1795.91 501.619 1793.44 499.389C1792.79 498.807 1791.48 498.212 1790.51 498.067C1788.71 497.793 1784.25 494.434 1783.86 493.054C1782.96 489.823 1783.03 489.38 1784.53 488.606C1785.55 488.078 1787.44 487.822 1790.8 487.757L1795.62 487.665L1799.02 490.676C1802.15 493.444 1802.62 493.703 1804.95 493.897C1808.76 494.212 1814.68 492.215 1819.42 489.013C1825.68 484.786 1833.56 478.443 1838.96 473.275C1843.27 469.145 1843.83 467.495 1841.57 465.592C1840.06 464.318 1839.37 463.41 1835.35 457.435C1831.29 451.415 1830.31 449.864 1829.34 447.945C1827.8 444.926 1822.32 439.785 1818.6 437.881C1815.74 436.417 1814.76 436.154 1812.09 436.134C1808.22 436.105 1807.65 436.546 1808.45 438.966C1809.01 440.662 1808.98 440.779 1807.69 441.807C1806.95 442.397 1805.71 443.006 1804.93 443.162C1802.22 443.704 1801.98 443.873 1801.74 445.382C1801.58 446.419 1801.82 447.402 1802.51 448.53C1803.37 449.925 1803.52 450.889 1803.52 454.968V459.765L1801.15 462.128C1799.22 464.064 1798.07 464.74 1794.83 465.868C1792.27 466.756 1789.9 467.251 1788.16 467.261C1786.04 467.274 1785.05 467.544 1783.59 468.511C1782.56 469.19 1781.72 469.931 1781.72 470.159C1781.72 470.386 1781.04 470.99 1780.2 471.501C1777.35 473.239 1768.25 472.55 1763.88 470.264C1760.96 468.734 1758.66 468.371 1757.88 469.314C1757.38 469.917 1757.59 470.682 1759.15 473.93C1762.48 480.869 1764.38 485.067 1764.38 485.459C1764.38 486.618 1769.42 493.285 1772.5 496.207C1776.34 499.842 1776.55 500.523 1774.19 501.742C1772.31 502.714 1769.43 502.592 1767.09 501.441C1764.95 500.39 1763.29 498.064 1759.23 490.477C1758.13 488.415 1756.77 485.989 1756.2 485.087C1751.66 477.85 1746.87 468.424 1744.44 461.945C1743.78 460.178 1743.24 459.512 1742.05 459.015C1741.2 458.662 1740.19 458.372 1739.8 458.372C1738.69 458.372 1738.41 460.542 1739.24 462.728C1739.66 463.812 1740.51 466.387 1741.13 468.449C1741.76 470.511 1742.81 473.475 1743.46 475.036C1745.27 479.314 1745.84 483.941 1745.2 488.964C1744.61 493.579 1743.6 496.107 1741.23 498.901C1739.36 501.117 1739.17 501.028 1736.28 496.606C1733.65 492.561 1733.37 490.122 1735.07 485.879C1736.51 482.278 1736.49 482.092 1734.09 475.713C1733.16 473.265 1732 469.679 1731.51 467.746C1731.01 465.813 1730.2 462.755 1729.7 460.95C1728.37 456.184 1727.7 451.171 1727.91 447.511C1728.14 443.454 1728.97 442.493 1732.55 442.126C1734.74 441.903 1736 442.173 1741.65 444.077C1745.26 445.293 1748.42 446.45 1748.68 446.65C1749.87 447.573 1756.32 449.936 1757.64 449.936C1759.69 449.936 1760.46 447.535 1759.07 445.471C1758.73 444.963 1757.97 443.342 1757.39 441.87C1756.8 440.398 1756.06 438.976 1755.74 438.71C1755.42 438.443 1754.18 436.273 1752.98 433.887C1751.42 430.778 1750.66 428.554 1750.28 426.034C1749.99 424.101 1749.67 422.048 1749.56 421.473C1749.26 419.845 1747.07 419.002 1743.2 419.02C1739.02 419.04 1733.02 420.062 1731.52 421.011C1730.9 421.396 1729.6 421.966 1728.62 422.277C1726.43 422.97 1719.06 426.7 1718.03 427.632C1717.62 428.005 1716.33 428.718 1715.16 429.217C1714 429.716 1712.78 430.446 1712.45 430.841C1712.13 431.235 1711.18 431.829 1710.35 432.161C1709.52 432.493 1708 433.33 1706.97 434.022C1705.94 434.713 1704.57 435.437 1703.92 435.63C1703.28 435.823 1701.7 436.571 1700.41 437.293C1699.12 438.014 1697.12 438.856 1695.96 439.164C1694.8 439.472 1693.05 440.132 1692.07 440.631C1691.09 441.131 1689.09 441.755 1687.62 442.019C1686.14 442.283 1683.15 442.935 1680.96 443.469C1675.5 444.798 1668.38 444.803 1663.62 443.479C1661.68 442.942 1658.9 442.265 1657.43 441.974C1655.97 441.683 1654.28 441.061 1653.68 440.591C1653.09 440.122 1651.65 439.284 1650.49 438.728C1649.33 438.173 1647.6 436.797 1646.63 435.67L1644.88 433.62L1646.26 433.139C1647.39 432.746 1647.84 432.821 1648.77 433.551C1649.4 434.042 1651.78 434.955 1654.07 435.581C1656.35 436.206 1659.11 437.05 1660.19 437.456C1665.05 439.283 1679 439.289 1683.91 437.466C1684.99 437.065 1687.45 436.23 1689.37 435.609C1691.3 434.988 1693.93 433.971 1695.23 433.35C1696.53 432.728 1698.54 431.777 1699.7 431.237C1700.86 430.697 1702.13 430.046 1702.52 429.79C1702.9 429.534 1704.38 428.796 1705.8 428.149C1709.13 426.629 1712.3 424.821 1713.43 423.803C1713.92 423.36 1715.3 422.435 1716.5 421.748C1721.86 418.681 1726.47 416.238 1727.46 415.94C1728.05 415.762 1729.9 415.025 1731.57 414.302C1735.77 412.492 1741.28 411.77 1748.1 412.137C1752.59 412.378 1753.92 412.299 1755.04 411.723C1755.79 411.331 1756.41 410.85 1756.41 410.653C1756.41 409.909 1762.13 403.899 1765.3 401.311C1771.03 396.628 1772.44 395.568 1772.91 395.568C1773.17 395.568 1774 395.122 1774.77 394.577C1776.15 393.595 1782.57 390.726 1785.19 389.919C1787.51 389.205 1793.51 388.524 1797.75 388.493C1802.55 388.458 1813.88 389.749 1816.87 390.672C1818.03 391.029 1821.35 391.742 1824.25 392.257C1827.14 392.772 1830.09 393.491 1830.81 393.857C1831.52 394.222 1833.76 394.972 1835.78 395.524C1837.8 396.075 1840.1 396.861 1840.89 397.27C1841.68 397.678 1843.8 398.42 1845.59 398.917C1847.39 399.414 1849.47 400.139 1850.22 400.527C1850.97 400.914 1853.21 401.732 1855.2 402.343C1859.82 403.763 1866.01 406.025 1869.56 407.592C1871.75 408.555 1873.5 408.899 1877.77 409.197C1880.96 409.42 1884.44 409.977 1886.24 410.549C1890.16 411.802 1897.29 412.903 1901.49 412.907C1905.01 412.91 1908.97 412.056 1912.16 410.608C1917.61 408.129 1919.53 407.156 1922.32 405.445C1924 404.419 1926 403.276 1926.78 402.905C1929.74 401.483 1929.98 401.114 1929.33 398.954C1928.42 395.915 1928.97 395.559 1934.45 395.665C1938.68 395.748 1939.18 395.655 1942.48 394.149C1945.89 392.592 1946.16 392.545 1951.85 392.558L1957.71 392.571L1961.27 394.451C1963.24 395.485 1965.66 397.133 1966.66 398.114C1971.63 402.974 1975.71 404.568 1985.28 405.401C1990.46 405.852 1991.37 406.35 1992.23 409.211C1993.31 412.819 1990.1 419.297 1985.84 422.083C1983.36 423.708 1978.82 424.659 1971.3 425.125C1961.8 425.715 1958.39 426.26 1955.67 427.625C1954.47 428.225 1952.65 428.982 1951.62 429.307C1950.59 429.631 1949.32 430.268 1948.8 430.722C1948.29 431.176 1947.13 431.92 1946.23 432.377C1940.89 435.077 1932.75 441.377 1924.22 449.396C1920.76 452.657 1916.99 456.168 1915.86 457.199C1914.72 458.23 1913.1 459.706 1912.26 460.48C1906.18 466.053 1898.06 471.054 1892.16 472.855C1889.44 473.687 1887.72 473.838 1880.91 473.845C1871.59 473.855 1865.01 474.443 1863.58 475.395C1863.01 475.774 1862.12 477.357 1861.54 479.051C1860.47 482.134 1857.18 494.727 1857.18 495.724C1857.18 496.886 1860.04 500.442 1863.9 504.067C1871.54 511.258 1872.97 512.233 1877.51 513.346C1880.31 514.032 1881.95 515.032 1882 516.081C1882.01 516.245 1881.33 516.706 1880.49 517.106C1875.34 519.551 1872.26 519.946 1869.11 518.56ZM1963.93 403.695C1963.28 403.045 1963.02 403.017 1962.41 403.528C1961.74 404.084 1961.74 404.223 1962.47 405.025C1963.19 405.82 1963.34 405.837 1963.99 405.193C1964.63 404.548 1964.63 404.395 1963.93 403.695Z" fill="black"/>
<path d="M2078.56 307.395H1561.44V572.605H2078.56V307.395Z" stroke="black" stroke-width="2.46781"/>
</g>
<g clip-path="url(#clip4_0_1)">
<path d="M2598.56 307.395H2081.44V572.605H2598.56V307.395Z" stroke="black" stroke-width="2.46781"/>
<path d="M2315.08 517.322C2314.43 517.007 2313.83 516.096 2313.52 514.94C2312.74 512.062 2313.86 509.717 2317.56 506.45C2319.23 504.972 2320.49 503.588 2320.36 503.374C2320.23 503.16 2319.18 502.663 2318.02 502.271C2314.77 501.163 2312.31 498.921 2311.43 496.276C2310.67 493.99 2309.77 493.096 2306.53 491.414C2299.55 487.79 2298.94 487.402 2292.43 482.457C2288.23 479.265 2283.14 474.317 2281.94 472.26C2279.74 468.474 2281.49 465.089 2287.31 461.839C2291.32 459.602 2293.65 458.246 2295.28 457.191C2296.18 456.608 2298.03 455.775 2299.38 455.338C2300.86 454.864 2302.06 454.144 2302.38 453.549C2302.68 453.001 2303.36 452.193 2303.9 451.754C2304.44 451.314 2304.75 450.815 2304.58 450.645C2304.41 450.475 2301.95 450.35 2299.11 450.368C2293.02 450.406 2289.76 449.57 2285.94 447.003C2281.24 443.835 2277.04 437.245 2275.4 430.463C2274.81 428.004 2274.18 426.701 2272.96 425.363L2271.31 423.567L2266.84 423.895C2264.38 424.076 2261.81 424.435 2261.13 424.694C2260.45 424.952 2257.81 425.692 2255.25 426.338C2252.7 426.983 2250.17 427.786 2249.63 428.122C2249.09 428.458 2247.59 429.113 2246.3 429.576C2245.01 430.04 2243.42 430.787 2242.77 431.237C2242.11 431.686 2240.42 432.61 2239.02 433.291C2237.61 433.972 2235.6 434.991 2234.55 435.554C2231.9 436.976 2231.2 437.331 2228.01 438.831C2226.47 439.554 2224.16 440.645 2222.87 441.254C2221.58 441.864 2219.58 442.604 2218.42 442.9C2217.26 443.196 2214.8 443.951 2212.95 444.578C2210.02 445.572 2208.75 445.718 2203.02 445.718C2196.6 445.718 2196.32 445.675 2190.68 443.816C2187.51 442.77 2184.49 441.528 2183.97 441.058C2183.45 440.587 2182.59 440.068 2182.05 439.904C2180.75 439.512 2176.53 436.213 2173.59 433.292C2171.41 431.135 2171.26 430.841 2171.63 429.478L2172.02 428.001L2174.1 428.628C2176.66 429.396 2178.11 430.149 2178.11 430.703C2178.11 430.933 2179.22 431.67 2180.57 432.342C2181.92 433.014 2183.77 433.963 2184.67 434.452C2192.44 438.66 2197.02 439.584 2206.1 438.776C2209.16 438.503 2212.5 437.968 2213.52 437.587C2220.26 435.062 2222.01 434.33 2222.63 433.766C2223.02 433.417 2224.29 432.687 2225.45 432.145C2226.61 431.603 2229.03 430.326 2230.84 429.309C2232.64 428.292 2235.2 426.922 2236.53 426.265C2237.86 425.608 2239.23 424.726 2239.58 424.305C2239.93 423.884 2241.37 423.027 2242.79 422.402C2244.21 421.777 2245.68 420.983 2246.07 420.638C2246.79 419.989 2251.4 418.123 2255.91 416.651C2259.54 415.467 2271.72 414.127 2275.41 414.505C2278.92 414.865 2280.55 414.233 2282.22 411.864C2284.63 408.441 2291.8 401.124 2294.89 398.929C2297.96 396.748 2305.09 393.38 2308.46 392.52C2310.1 392.099 2312.92 391.295 2314.73 390.734C2317.62 389.834 2318.96 389.722 2325.98 389.795C2331.38 389.851 2334.93 390.116 2336.99 390.618C2338.67 391.025 2341.72 391.69 2343.79 392.095C2345.85 392.5 2348.8 393.246 2350.35 393.752C2351.9 394.258 2355.06 395.285 2357.38 396.035C2365.65 398.709 2371.32 400.71 2371.85 401.141C2372.14 401.382 2373.75 401.929 2375.42 402.357C2377.1 402.785 2379.52 403.622 2380.81 404.217C2382.44 404.971 2384.79 405.461 2388.55 405.832C2391.51 406.124 2396.04 406.57 2398.62 406.822C2401.2 407.074 2404.47 407.594 2405.89 407.977C2407.3 408.359 2410.48 408.925 2412.95 409.233C2416.86 409.722 2417.96 409.688 2421.62 408.965C2423.92 408.509 2426.02 407.964 2426.27 407.754C2426.53 407.544 2428.17 406.804 2429.91 406.108C2431.65 405.413 2433.07 404.676 2433.07 404.471C2433.07 404.267 2433.81 403.66 2434.72 403.123C2435.83 402.471 2436.69 401.421 2437.32 399.953C2438.46 397.298 2439.13 396.734 2442.36 395.766C2445.42 394.846 2447.27 393.719 2451.02 390.501C2455.05 387.047 2456.52 386.392 2462.36 385.44C2467.45 384.61 2467.45 384.61 2471.46 385.671C2475.29 386.685 2476.43 387.245 2481.94 390.802C2485.67 393.212 2491.77 395.019 2498.78 395.798C2502.86 396.25 2505.17 396.72 2505.71 397.203C2507.12 398.48 2507.64 401.201 2507.07 404.284C2506.51 407.339 2506 408.531 2504.75 409.729C2504.29 410.17 2503.64 410.913 2503.29 411.38C2502.51 412.448 2498.09 415.605 2496.42 416.288C2495.73 416.57 2491.06 416.944 2486.03 417.12C2478.17 417.394 2476.6 417.576 2474.78 418.419C2473.62 418.959 2471.98 419.655 2471.13 419.968C2470.29 420.28 2468.89 421.088 2468.02 421.762C2467.15 422.436 2465.83 423.358 2465.1 423.811C2463.58 424.749 2459.8 427.475 2457.15 429.549C2454.58 431.558 2449.17 437.096 2443.42 443.609C2434.43 453.802 2424.71 463.059 2423 463.059C2422.71 463.059 2421.86 463.692 2421.12 464.465C2420.38 465.239 2419.55 465.874 2419.27 465.877C2419 465.88 2417.53 466.513 2416.02 467.282C2411.16 469.744 2407.66 470.142 2394.64 469.715C2382.53 469.319 2381.77 469.407 2379.96 471.404C2379.49 471.922 2378.79 473.578 2378.4 475.084C2378 476.59 2377.3 478.455 2376.82 479.229C2376.35 480.002 2375.63 482.063 2375.23 483.808C2374.82 485.554 2374.1 487.768 2373.61 488.729C2373.13 489.69 2372.37 491.742 2371.93 493.289C2371.48 494.835 2370.51 497.033 2369.76 498.173C2369.01 499.313 2368.39 500.383 2368.39 500.551C2368.39 500.982 2362.42 504.965 2360.31 505.94C2359.34 506.387 2358.55 506.908 2358.55 507.097C2358.55 508.093 2351.77 510.079 2348.71 509.981C2345.81 509.888 2340.11 508.703 2336.88 507.521C2335.41 506.981 2333.93 506.667 2333.6 506.824C2333.28 506.981 2331.95 507.732 2330.66 508.492C2329.38 509.252 2327.27 510.441 2325.98 511.134C2324.69 511.828 2322.24 513.632 2320.53 515.145C2317.3 517.993 2316.85 518.175 2315.08 517.322ZM2353.16 500.73C2357.78 498.6 2360.2 495.457 2361.38 490.061C2362.7 484.005 2362.7 483.562 2361.4 482.914C2360.33 482.377 2359.91 482.718 2352.85 489.752L2345.42 497.154L2345.79 498.961C2346.12 500.546 2346.4 500.836 2348.02 501.323C2349.97 501.904 2350.83 501.804 2353.16 500.73ZM2335.88 492.289C2338.88 490.535 2349.27 480.048 2356.7 471.283C2357.78 470.007 2359.17 468.568 2359.78 468.086C2361.27 466.913 2361.33 464.06 2359.89 462.78C2359.34 462.289 2358.38 460.833 2357.76 459.544C2354.08 451.907 2349.74 446.405 2344.17 442.31C2339.88 439.16 2336.54 438.309 2335.57 440.116C2335.15 440.908 2335.36 441.605 2336.76 444.109C2338.8 447.756 2339.48 452.567 2338.29 454.848C2337.17 456.982 2326.83 467.959 2323.16 470.908C2320.06 473.4 2317.55 475.376 2314.97 477.354C2310.7 480.615 2310.8 480.492 2311.08 482.215C2311.26 483.342 2311.74 484.014 2312.74 484.558C2313.51 484.978 2314.83 485.954 2315.68 486.727C2317.76 488.624 2329.55 493.366 2332.46 493.474C2333.18 493.501 2334.73 492.968 2335.88 492.289ZM2302.52 473.253C2303.32 472.415 2304.37 471.506 2304.86 471.232C2306.41 470.369 2305.24 469.621 2302.34 469.621C2300.84 469.621 2298.96 469.752 2298.15 469.914C2296.79 470.186 2296.69 470.345 2296.69 472.179C2296.69 473.264 2296.83 474.292 2297 474.464C2297.17 474.635 2298.16 474.776 2299.19 474.776C2300.7 474.776 2301.36 474.478 2302.52 473.253Z" fill="black"/>
</g>
<g clip-path="url(#clip5_0_1)">
<path d="M3118.56 307.395H2601.44V572.605H3118.56V307.395Z" stroke="black" stroke-width="2.46781"/>
<path d="M2907.14 515.907C2906.21 515.586 2905.09 515.01 2904.65 514.627C2903.37 513.496 2897.75 511.048 2895.33 510.567C2894.09 510.322 2891.08 509.889 2888.63 509.605C2886.18 509.322 2880.8 508.261 2876.68 507.247C2865.99 504.62 2862.11 502.556 2860.94 498.87C2860.33 496.985 2858.28 494.597 2855.82 492.926C2854.92 492.312 2853.67 491.442 2853.05 490.992C2852.02 490.248 2850.62 490.188 2837.67 490.326C2824.64 490.464 2823.34 490.407 2822.51 489.66C2822.02 489.211 2821.61 488.461 2821.61 487.994C2821.61 486.18 2828.45 480.083 2830.49 480.083C2831.01 480.083 2832.83 480.611 2834.54 481.255C2837.29 482.289 2838.38 482.426 2843.81 482.419C2847.2 482.414 2850.2 482.257 2850.49 482.068C2851.46 481.422 2852.54 478.727 2852.54 476.936C2852.54 471.468 2845.7 462.062 2840.5 460.379C2839.52 460.063 2837.87 459.324 2836.84 458.738C2835.81 458.152 2833.7 457.418 2832.16 457.107C2830.61 456.796 2828.61 456.174 2827.7 455.725C2826.8 455.276 2824.55 454.454 2822.69 453.898C2820.83 453.342 2819.18 452.662 2819.01 452.386C2818.84 452.111 2817.77 451.487 2816.63 450.999C2813.85 449.808 2808.71 445.641 2805.41 441.914C2802.35 438.449 2799.25 433.058 2798.84 430.488C2798.49 428.33 2797.96 427.616 2795.64 426.195C2793.98 425.182 2793.26 425.07 2788.37 425.061C2784.35 425.053 2782.5 425.248 2781.22 425.815C2780.27 426.236 2777.95 427.008 2776.06 427.532C2774.18 428.055 2769.37 430.154 2765.37 432.197C2740.94 444.685 2740.97 444.675 2730.69 444.67C2723.73 444.668 2719.72 444 2716.86 442.372C2715.83 441.784 2714.46 441.146 2713.82 440.954C2710.79 440.053 2701.74 431.65 2699.5 427.65C2698.87 426.522 2698.35 424.887 2698.35 424.018C2698.35 422.458 2698.38 422.436 2700.44 422.436C2702.16 422.436 2702.67 422.65 2703.37 423.659C2704.97 425.988 2711.72 432.38 2713.57 433.327C2714.59 433.849 2715.97 434.675 2716.62 435.161C2717.82 436.044 2727.58 438.84 2729.47 438.84C2730.02 438.84 2733.21 438.215 2736.55 437.451C2743.16 435.943 2745.27 434.988 2760.68 426.522C2767.52 422.767 2772.58 420.511 2775.57 419.88C2777.31 419.513 2779.57 418.831 2780.6 418.366C2783.4 417.105 2796.8 417.126 2798.91 418.394C2800.33 419.243 2800.39 419.24 2802.31 418.264C2803.38 417.717 2804.62 416.692 2805.06 415.986C2807.18 412.567 2816.73 402.514 2820.01 400.24C2827.03 395.377 2832.33 392.456 2836.61 391.108C2839.66 390.144 2847.13 389.164 2851.37 389.17C2857.17 389.18 2867.22 390.826 2871.29 392.433C2872.45 392.891 2875.06 393.632 2877.1 394.081C2879.13 394.529 2881.66 395.276 2882.72 395.741C2883.78 396.206 2887.15 397.038 2890.2 397.59C2893.26 398.142 2896.32 398.807 2897 399.067C2900.13 400.264 2925.56 402.53 2931.05 402.102C2937.95 401.562 2943.18 400.21 2946.17 398.195C2951.01 394.922 2953.73 392.332 2955.75 389.065C2957.31 386.546 2959.18 385.235 2962.75 384.175C2965.12 383.472 2965.96 382.938 2970.07 379.5C2971.04 378.697 2973.4 377.222 2975.34 376.221C2978.77 374.444 2978.97 374.402 2983.77 374.41C2988.6 374.417 2988.77 374.454 2992.74 376.405C2994.97 377.498 2997.06 378.721 2997.4 379.124C2997.73 379.526 2998.86 380.29 2999.9 380.821C3000.94 381.351 3002.32 382.166 3002.97 382.63C3003.68 383.133 3007.66 384.174 3012.83 385.206C3019.12 386.463 3021.79 387.197 3022.54 387.879C3025.14 390.241 3023.94 396.581 3020.04 401.15C3018.27 403.227 3017 404.161 3014.3 405.392C3010.92 406.935 3010.7 406.97 3004.45 406.978C2997.63 406.988 2992.44 407.795 2990.39 409.173C2989.71 409.623 2988.14 410.473 2986.88 411.061C2985.63 411.65 2983.98 412.657 2983.21 413.3C2982.45 413.943 2981.61 414.469 2981.35 414.469C2980.62 414.469 2974.4 419.55 2970.26 423.532C2968.41 425.306 2966.38 427.997 2963.85 432.024C2963.34 432.845 2962.43 434.134 2961.84 434.889C2961.25 435.644 2959.78 437.528 2958.56 439.074C2946.68 454.253 2935.65 462.53 2926.59 463.057C2919.94 463.444 2919.64 463.826 2922.06 468.939C2922.94 470.815 2924.02 473.59 2924.46 475.105C2924.89 476.621 2925.69 478.453 2926.22 479.176C2926.78 479.93 2927.29 481.506 2927.42 482.869C2927.71 485.871 2927.06 486.877 2920.18 493.983C2915.98 498.315 2914.76 499.305 2913.05 499.759C2910.96 500.317 2895.9 500.149 2891.42 499.519C2889.76 499.285 2889.14 499.388 2888.65 499.982C2888.27 500.437 2888.19 500.913 2888.44 501.162C2888.67 501.392 2892.03 501.918 2895.9 502.332C2899.76 502.746 2903.77 503.282 2904.8 503.523C2905.83 503.764 2909.05 504.484 2911.95 505.122C2918.62 506.588 2919.66 507.087 2920.33 509.147C2921.02 511.251 2920.57 512.045 2918.07 513.133C2916.96 513.616 2915.47 514.404 2914.77 514.884C2912.94 516.129 2909.23 516.626 2907.14 515.907ZM2903.63 492.053C2905.05 492.063 2907.05 492.238 2908.08 492.442C2909.69 492.76 2910.19 492.642 2911.6 491.617C2912.5 490.959 2913.99 489.911 2914.9 489.288C2915.96 488.566 2916.78 487.5 2917.16 486.346C2917.69 484.757 2917.65 484.277 2916.85 482.42C2916.35 481.256 2915.61 480.029 2915.21 479.693C2914.8 479.357 2914.01 478.205 2913.45 477.133C2912.9 476.061 2911.93 474.582 2911.31 473.848C2910.7 473.113 2910.19 472.252 2910.19 471.934C2910.19 471.616 2909.81 470.946 2909.36 470.447C2908.9 469.947 2908.02 468.725 2907.41 467.732C2906.08 465.552 2903.92 464.152 2901.9 464.15C2900.07 464.148 2898.79 464.693 2896.36 466.514C2893.23 468.874 2886.28 473.522 2885.9 473.522C2885.7 473.522 2884.83 474.043 2883.96 474.681C2883.1 475.318 2880.96 476.388 2879.2 477.058C2877.09 477.865 2875.53 478.833 2874.57 479.926C2873.15 481.539 2873.12 481.654 2873.43 484.931C2873.79 488.739 2874.75 490.225 2877.11 490.627C2877.9 490.763 2882.04 490.95 2886.29 491.042C2891.48 491.155 2894.79 491.447 2896.36 491.931C2897.66 492.328 2899.23 492.513 2899.88 492.343C2900.52 492.173 2902.21 492.043 2903.63 492.053ZM2880.13 464.262C2884.41 459.395 2884.69 458.475 2882.61 456.08C2881.87 455.233 2880.71 453.697 2880.02 452.666C2877.43 448.797 2876.3 447.427 2873.15 444.355C2870.63 441.89 2869.52 441.136 2868.1 440.909C2866.68 440.682 2866.21 440.783 2865.99 441.355C2865.83 441.761 2866.01 442.395 2866.38 442.763C2866.74 443.131 2867.58 444.86 2868.24 446.606C2868.9 448.352 2869.66 450.05 2869.93 450.381C2870.74 451.356 2872.69 461.776 2872.69 465.17C2872.7 468.04 2872.78 468.319 2873.75 468.512C2875.8 468.923 2876.35 468.557 2880.13 464.262ZM2995.38 386.734C2996.01 386.105 2995.32 384.942 2994.32 384.942C2993.31 384.942 2992.62 386.105 2993.25 386.734C2993.55 387.038 2994.03 387.286 2994.32 387.286C2994.6 387.286 2995.08 387.038 2995.38 386.734Z" fill="black"/>
</g>
<g clip-path="url(#clip6_0_1)">
<path d="M3638.56 307.395H3121.44V572.605H3638.56V307.395Z" stroke="black" stroke-width="2.46781"/>
<path d="M3326.62 517.579C3320.22 517.243 3319.49 516.892 3317.22 513.049C3316.35 511.572 3315.26 509.741 3314.8 508.98C3313.52 506.888 3307.52 501.037 3299.89 494.452C3292.56 488.126 3291.85 487.318 3291.07 484.426C3290.09 480.769 3292.29 477.253 3298.38 472.746C3299.71 471.758 3304.84 469.672 3310.95 467.632C3318.37 465.156 3323.52 462.792 3325.2 461.079L3326.89 459.372L3325.25 457.955C3324.35 457.176 3322.6 455.85 3321.37 455.01C3319.17 453.5 3316.26 449.969 3314.58 446.773C3314.11 445.867 3312.65 443.744 3311.34 442.056C3308.23 438.054 3307.79 437.105 3306.51 431.696C3305.71 428.278 3305.52 426.482 3305.75 424.431C3305.92 422.933 3306.18 420.536 3306.33 419.106L3306.6 416.505L3304.91 415.986C3303.98 415.701 3302.75 415.573 3302.17 415.702C3298.68 416.475 3291.71 419.062 3288.72 420.691C3283.24 423.677 3281.72 424.763 3273.47 431.549C3271.6 433.096 3268.66 435.416 3266.95 436.704C3265.24 437.993 3263.26 439.49 3262.56 440.03C3260.26 441.784 3253.86 444.85 3250.03 446.031C3245.02 447.572 3242.57 447.87 3239.48 447.314C3236.28 446.737 3230.02 444.452 3228.86 443.439C3228.39 443.023 3227.49 442.422 3226.88 442.102C3224.2 440.717 3217.22 433.028 3215.9 430.019C3215.59 429.314 3214.96 428.174 3214.49 427.487C3213.87 426.564 3213.73 425.796 3213.96 424.558C3214.3 422.741 3214.68 422.502 3215.55 423.553C3215.86 423.925 3216.54 424.294 3217.07 424.374C3217.63 424.459 3218.51 425.388 3219.2 426.628C3221.61 430.942 3226.48 435.941 3230.29 438.015C3231.81 438.841 3233.49 439.771 3234.03 440.082C3235.61 440.996 3239.63 441.294 3243.8 440.808C3249.22 440.177 3256.49 436.854 3261.51 432.721C3262.15 432.19 3263.81 430.865 3265.19 429.778C3266.56 428.69 3269.31 426.429 3271.28 424.753C3276.1 420.657 3278.34 418.946 3280.02 418.078C3280.8 417.678 3281.83 416.907 3282.32 416.365C3282.81 415.823 3283.46 415.38 3283.75 415.38C3284.05 415.38 3285.55 414.615 3287.08 413.68C3288.61 412.745 3291.02 411.595 3292.44 411.125C3293.86 410.655 3296.28 409.803 3297.83 409.232C3300.21 408.352 3301.86 408.162 3308.61 407.994C3315.84 407.814 3316.75 407.696 3318.45 406.725C3320.38 405.624 3327.49 403.61 3333.68 402.411C3336.29 401.907 3343.53 401.632 3361.57 401.35C3376.81 401.112 3389.19 400.687 3394.61 400.216C3399.38 399.801 3408.24 399.144 3414.3 398.755C3421.87 398.269 3426.48 397.748 3429.06 397.086C3431.12 396.556 3436.6 395.609 3441.24 394.981C3451.1 393.646 3456.31 392.163 3464.12 388.477C3467.16 387.04 3470.85 385.519 3472.32 385.096C3476.36 383.934 3478.39 382.736 3479.62 380.787C3481.31 378.116 3483.71 376.48 3485.95 376.48C3488.92 376.48 3492.39 375.571 3494.07 374.353C3496.82 372.352 3500.72 370.519 3502.87 370.208C3505.67 369.805 3515.79 372.236 3518.24 373.901C3519.19 374.546 3520.21 375.074 3520.52 375.074C3520.82 375.074 3523.25 377.217 3525.92 379.837C3530.66 384.501 3530.85 384.632 3535.21 386.137C3537.66 386.982 3540.85 388 3542.3 388.4C3544.31 388.952 3545.36 389.593 3546.69 391.067C3548.32 392.87 3548.43 393.158 3548.16 395.119C3547.75 398.1 3545.72 401.112 3542.68 403.251C3539 405.848 3534.93 406.355 3523.39 405.659C3513.73 405.077 3508.53 405.448 3504.65 406.995C3503.29 407.537 3501.22 408.268 3500.06 408.619C3498.89 408.97 3497.22 409.791 3496.33 410.444C3495.45 411.096 3494.49 411.63 3494.2 411.63C3493.37 411.63 3488.47 415.551 3484.64 419.27C3480.6 423.196 3479 425.57 3474.73 433.892C3468.83 445.398 3465.71 450.769 3463.28 453.577C3460.39 456.91 3459.67 459.222 3461.29 459.9C3462.49 460.401 3476.31 461.31 3482.74 461.31C3486.7 461.31 3487.27 461.43 3489.55 462.736C3491.69 463.958 3492.17 464.508 3492.95 466.587C3493.84 468.98 3493.84 469.054 3492.95 472.26C3492.46 474.047 3491.56 476.374 3490.96 477.431C3490.35 478.489 3489.59 480.197 3489.27 481.228C3488.05 485.078 3482.75 491.378 3478.27 494.294C3477.24 494.964 3475.94 495.846 3475.38 496.253C3474.45 496.927 3474.23 496.926 3472.92 496.245C3471.58 495.552 3471.47 495.318 3471.47 492.987C3471.47 488.785 3472.69 485.909 3475.42 483.633C3476.73 482.545 3478.66 481.107 3479.7 480.439C3481.84 479.078 3485.71 473.559 3485.45 472.242C3485.22 471.03 3483.21 470.146 3481.32 470.42C3480.41 470.55 3476.2 471.17 3471.94 471.797C3467.69 472.425 3462.7 473.084 3460.84 473.261C3456.59 473.669 3455.75 474.424 3456.17 477.463C3456.45 479.509 3456.39 479.639 3454.25 481.69C3453.03 482.854 3451.91 483.806 3451.76 483.806C3451.6 483.806 3450.02 485.192 3448.23 486.887C3444.33 490.595 3443.21 491.12 3436.56 492.322C3432.48 493.059 3430.75 493.629 3428.26 495.053C3424.59 497.161 3423.99 496.91 3423.94 493.222C3423.91 491.306 3424.16 490.678 3425.66 488.84C3427.54 486.548 3430.13 484.696 3431.5 484.673C3431.96 484.666 3433.71 484.801 3435.39 484.975C3438.31 485.279 3438.54 485.225 3441.2 483.599C3442.73 482.668 3444.86 481.515 3445.95 481.035C3447.03 480.555 3448.06 479.936 3448.23 479.659C3448.73 478.849 3445.85 475.296 3443.69 474.07C3442.6 473.45 3440.59 472.758 3439.21 472.533C3433.49 471.598 3431.05 468.788 3431.51 463.675C3431.7 461.583 3431.57 460.86 3430.85 459.978C3430.03 458.957 3429.57 458.869 3424.36 458.718C3417.93 458.531 3408.75 457.334 3406.48 456.383C3405.63 456.028 3403.29 455.282 3401.29 454.726C3399.29 454.171 3397.03 453.335 3396.25 452.869C3395.48 452.403 3393.9 451.776 3392.74 451.475C3391.58 451.175 3389.89 450.456 3388.99 449.878C3388.09 449.3 3386.4 448.457 3385.24 448.006C3384.08 447.555 3382.38 446.674 3381.47 446.05C3380.56 445.425 3378.84 444.732 3377.65 444.51C3375.66 444.139 3375.43 444.195 3374.91 445.178C3374.44 446.051 3374.47 446.597 3375.07 448.103C3375.87 450.101 3377.03 456.078 3377.5 460.606C3377.91 464.595 3380.01 479.329 3380.61 482.4C3381.24 485.674 3383.76 489.424 3386.78 491.595C3388.96 493.161 3395.15 495.469 3401.85 497.213C3403.38 497.612 3405.42 498.342 3406.39 498.837C3409.32 500.328 3414.06 500.921 3418.29 500.326C3421.36 499.896 3422.2 499.926 3423.31 500.503C3424.05 500.884 3424.76 501.482 3424.9 501.833C3425.29 502.838 3422.79 506.189 3420.43 507.84C3418.54 509.165 3417.91 509.346 3415.19 509.347C3413.49 509.348 3411.59 509.084 3410.97 508.76C3410.35 508.437 3407.95 507.517 3405.63 506.717C3392.8 502.293 3388.83 501.036 3385.1 500.213C3378.99 498.866 3375.73 497.245 3373.51 494.455C3371.64 492.105 3371.44 491.585 3370.12 485.212C3368.44 477.129 3364.37 468.113 3359.55 461.778C3359.05 461.134 3358.11 459.54 3357.45 458.236C3356.48 456.304 3355.93 455.765 3354.48 455.322C3353.51 455.023 3352.6 454.894 3352.46 455.035C3352.32 455.176 3352.07 457.436 3351.9 460.058C3351.57 465.387 3350.9 467.407 3348.32 470.791C3345.77 474.136 3341.17 476.444 3333.53 478.201C3330.22 478.961 3327.35 479.681 3327.16 479.799C3326.97 479.918 3324.19 480.456 3320.99 480.996C3317.79 481.535 3314.42 482.264 3313.51 482.616C3312.59 482.967 3310.59 483.486 3309.07 483.768C3305.42 484.443 3304.74 485.104 3305.6 487.172C3306.43 489.179 3314.71 498.804 3318.14 501.753C3319.6 503.006 3321.17 504.462 3321.62 504.989C3322.62 506.151 3327.01 508.839 3330.06 510.148C3332.5 511.199 3335.09 513.794 3335.09 515.189C3335.09 516.012 3332.98 518.116 3332.33 517.942C3332.17 517.899 3329.6 517.737 3326.62 517.579ZM3521.32 384.523C3522.05 383.719 3522.04 383.611 3521.25 382.892C3520.47 382.189 3520.31 382.186 3519.34 382.864C3518.33 383.568 3518.32 383.648 3519.09 384.495C3520.09 385.599 3520.34 385.602 3521.32 384.523Z" fill="black"/>
</g>
<g clip-path="url(#clip7_0_1)">
<path d="M4158.56 307.395H3641.44V572.605H4158.56V307.395Z" stroke="black" stroke-width="2.46781"/>
<path d="M3777.71 517.281C3773.39 515.317 3773.15 513.104 3776.02 501.544C3777.07 497.291 3778.28 491.702 3778.7 489.125C3779.12 486.547 3779.75 483.278 3780.09 481.86C3780.44 480.442 3780.97 477.595 3781.27 475.533C3781.91 471.228 3782.53 469.793 3784.51 468.132C3786.7 466.289 3788.73 465.982 3808.33 464.528C3814.7 464.056 3820.08 463.155 3822.38 462.176C3822.96 461.928 3823.85 461.056 3824.35 460.236C3825.24 458.772 3825.24 458.706 3824.37 456.425C3823.88 455.148 3823.2 453.758 3822.85 453.336C3821.86 452.137 3821.2 450.337 3819.96 445.411C3817.32 434.931 3816.7 427.047 3818.05 420.932C3819.03 416.464 3818.96 415.911 3817.33 415.065C3815.03 413.878 3810.86 414.543 3806.1 416.855C3803.91 417.919 3801.74 419.097 3801.28 419.474C3800.83 419.85 3799.52 420.702 3798.37 421.366C3797.23 422.03 3791.94 426.369 3786.61 431.009C3777.08 439.313 3773.49 442.182 3770.71 443.705C3769.94 444.129 3768.87 444.877 3768.33 445.368C3767.34 446.273 3760.82 449.202 3757.82 450.087C3756.87 450.369 3753.74 450.473 3750.32 450.337C3744.96 450.122 3744.09 449.954 3740.02 448.358C3737.58 447.398 3734.97 446.1 3734.23 445.473C3733.48 444.845 3732.27 444.02 3731.53 443.638C3730.79 443.257 3729.87 442.33 3729.48 441.579C3729.09 440.829 3728.35 440.08 3727.83 439.916C3727.32 439.751 3726.76 439.051 3726.59 438.359C3726.43 437.668 3726.07 436.822 3725.8 436.48C3725.45 436.032 3725.5 435.74 3725.98 435.433C3727.08 434.74 3727.65 434.923 3728.21 436.151C3728.5 436.789 3729.48 437.622 3730.39 438.002C3731.3 438.383 3732.05 438.899 3732.05 439.15C3732.05 439.401 3734 440.556 3736.38 441.718C3740.23 443.593 3741.29 443.889 3745.81 444.358C3753.49 445.154 3758.83 444.437 3763.65 441.962C3765.7 440.912 3768.2 439.389 3769.21 438.578C3772.81 435.69 3779.68 429.644 3784.15 425.437C3786.64 423.088 3789.76 420.323 3791.08 419.292C3792.4 418.261 3794.16 416.867 3794.99 416.194C3795.81 415.52 3797.17 414.622 3798 414.196C3798.83 413.771 3800.28 412.898 3801.23 412.257C3802.17 411.615 3803.25 411.09 3803.62 411.09C3804 411.09 3805.92 410.41 3807.89 409.579L3811.49 408.067L3821.33 408.025C3830.39 407.986 3831.39 407.897 3833.98 406.912C3838.19 405.31 3840.53 404.705 3845.7 403.883C3848.28 403.473 3852.11 402.824 3854.23 402.442C3856.79 401.978 3862.94 401.656 3872.74 401.474C3891.55 401.123 3901.76 400.494 3907.3 399.346C3909.73 398.843 3915.96 398 3921.13 397.475C3931.78 396.393 3947.24 394.031 3950.55 392.98C3951.77 392.594 3955.14 391.792 3958.05 391.198C3963.67 390.049 3969.57 388.46 3976.46 386.246C3978.78 385.5 3981.84 384.58 3983.26 384.201C3984.67 383.822 3987.1 382.973 3988.65 382.315C3990.19 381.656 3991.9 381.112 3992.44 381.106C3992.98 381.101 3994.4 380.578 3995.59 379.946C3996.78 379.315 3998.63 378.56 3999.71 378.268C4001.7 377.734 4003.12 376.561 4005.31 373.644L4006.5 372.05L4011.71 372.115C4017.37 372.185 4020.11 371.55 4022.06 369.716C4023.57 368.297 4029.37 367.985 4032.47 369.156C4033.63 369.595 4035.98 370.44 4037.69 371.035C4041.29 372.287 4044.62 374.657 4047.11 377.748C4050.52 381.975 4052.4 383.91 4054.03 384.86C4054.93 385.387 4056.33 386.286 4057.14 386.855C4059.02 388.179 4061.04 389.403 4064.31 391.196C4066.04 392.146 4067.22 393.197 4067.84 394.326C4068.71 395.933 4068.72 396.113 4067.99 397.637C4066.65 400.441 4062.9 404.096 4059.88 405.532C4056.53 407.129 4054.02 407.242 4050.32 405.965C4044.92 404.098 4038.91 402.654 4036.55 402.657C4034.15 402.659 4033.01 402.818 4024.93 404.276C4019.58 405.241 4013.4 408.306 4006.13 413.608C3995.35 421.467 3990.55 430.032 3989.36 443.515C3988.7 451.093 3988.58 451.605 3986.72 454.956C3984.89 458.247 3984.75 459.599 3986.08 461.019C3986.99 461.981 3987.15 462 3989.48 461.395C3993.45 460.363 4004.89 459.698 4013.4 460.005C4030.05 460.605 4034.02 461.782 4036.23 466.768C4037.23 469.035 4038.3 478.07 4038.84 488.914C4039.11 494.281 4039.04 495.468 4038.39 496.723C4037.33 498.791 4036.91 498.924 4035.27 497.717C4034 496.777 4029.83 491.572 4028.42 489.159C4027.72 487.968 4028.13 484.829 4029.24 482.888C4030.29 481.045 4030.35 479.021 4029.48 474.596C4028.27 468.472 4027.53 467.549 4024.15 467.933C4020.19 468.383 4009.89 470.961 4009.17 471.684C4008.71 472.144 4008.34 473.903 4008.1 476.772C4007.54 483.655 4005.94 486.592 3997.26 496.623C3990.56 504.374 3989.87 504.735 3988.86 501.001C3987.97 497.699 3988.8 495.978 3993.51 491.31C3996.68 488.178 3997.97 486.5 3999.15 483.969C4001.75 478.431 4001.57 475.752 3998.48 474.088C3996.95 473.264 3996.56 473.263 3987.32 474.068C3975.36 475.111 3975.03 475.041 3970.83 470.503C3967.46 466.864 3966.38 466.393 3961.42 466.393C3957.01 466.393 3955.28 465.772 3953.03 463.384C3949.1 459.223 3947.22 458.473 3937.09 457.034C3935.03 456.741 3931.65 456.004 3929.59 455.396C3927.53 454.789 3924.68 454.034 3923.27 453.718C3921.85 453.403 3920.12 452.857 3919.43 452.506C3918.73 452.155 3916.31 451.442 3914.04 450.92C3911.77 450.398 3908.85 449.557 3907.56 449.05C3906.28 448.542 3903.69 447.811 3901.82 447.425C3899.96 447.038 3897.64 446.39 3896.67 445.984C3895.7 445.578 3893.54 444.959 3891.86 444.608C3881.36 442.406 3876.92 442.74 3873.88 445.961C3872.89 447.017 3871.55 449.084 3870.9 450.556C3870.26 452.028 3869.24 453.554 3868.64 453.949C3867.56 454.651 3867.54 454.811 3867.62 461.584C3867.71 468.852 3867.2 471.905 3865.63 473.657C3865.17 474.173 3864.45 475.277 3864.02 476.112C3863.36 477.433 3859.01 482.682 3854.97 487.049C3851.66 490.62 3850.73 491.706 3848.98 494.02C3847.95 495.383 3846.43 497.322 3845.61 498.329C3843.69 500.684 3843.4 501.66 3844.06 503.651C3844.81 505.939 3846.1 506.175 3859.06 506.401C3870.69 506.603 3871.73 506.763 3876.79 509.121C3879.88 510.559 3883.9 513.854 3883.9 514.944C3883.9 515.7 3882.39 516.557 3880.19 517.052C3878.31 517.477 3876.6 516.756 3874.03 514.456C3871.34 512.04 3868.79 511.576 3862.13 512.283C3854.98 513.041 3840.66 513.489 3837.71 513.047C3835.92 512.779 3835.06 512.3 3833.44 510.679C3831.7 508.942 3831.41 508.369 3831.41 506.721C3831.41 505.661 3831.74 504.01 3832.16 503.052C3832.58 502.093 3833.6 499.306 3834.44 496.857C3836.37 491.262 3838.09 487.01 3839.72 483.849C3840.97 481.403 3840.98 481.38 3840.06 480.5C3839.18 479.653 3838.92 479.644 3834.22 480.3C3827.15 481.286 3813.87 480.403 3801.64 478.132C3800.36 477.893 3797.69 477.684 3795.72 477.669C3792.22 477.642 3792.1 477.679 3790.74 479.223C3789.61 480.517 3789.21 481.646 3788.53 485.433C3788.07 487.978 3787.22 491.643 3786.64 493.576C3786.07 495.509 3785.44 498.251 3785.24 499.669C3785.05 501.087 3784.69 502.77 3784.45 503.411C3784.16 504.18 3784.19 505.238 3784.55 506.526C3785.02 508.184 3785.46 508.668 3787.51 509.76C3790.37 511.282 3793.44 514.075 3793.44 515.157C3793.44 516.861 3791.72 517.621 3786.99 518.002C3780.64 518.515 3780.38 518.495 3777.71 517.281ZM4044.13 383.735C4045.02 382.662 4043.53 381.752 4042.01 382.444C4041.02 382.897 4040.91 383.115 4041.38 383.685C4042.1 384.551 4043.43 384.576 4044.13 383.735Z" fill="black"/>
</g>
<g clip-path="url(#clip8_0_1)">
<path d="M4678.56 307.395H4161.44V572.605H4678.56V307.395Z" stroke="black" stroke-width="2.46781"/>
<path d="M4332.03 518.417C4328.38 516.612 4325.91 514.112 4322.64 508.886C4319.95 504.594 4313.18 494.426 4311.1 491.545C4307.59 486.695 4305.6 484.099 4305.21 483.858C4304.98 483.718 4304.52 482.632 4304.19 481.447C4303.31 478.314 4304.28 476.488 4307.71 474.808C4310.47 473.453 4310.79 472.83 4309.43 471.47C4308.31 470.354 4296.4 469.348 4284.28 469.346C4275.45 469.345 4271.44 469.956 4267.61 471.887C4265.59 472.907 4259 479.342 4253.59 485.575C4247.11 493.048 4241.9 496.748 4234.85 498.891C4230.38 500.248 4229.81 500.326 4228.86 499.707C4227.43 498.778 4227.43 495.993 4228.87 493.841C4230.29 491.699 4235.25 488.436 4237.69 488.022C4239.22 487.764 4240.24 487.125 4242.17 485.205C4243.55 483.839 4244.67 482.473 4244.67 482.168C4244.67 481.863 4245.08 481.048 4245.57 480.356C4246.06 479.665 4246.97 478.156 4247.58 477.003C4248.86 474.601 4249.89 473.324 4253.8 469.33C4256.18 466.895 4258.74 463.691 4261.73 459.402C4263.11 457.424 4268.02 456.331 4278.65 455.63C4284.07 455.274 4289.97 454.684 4291.78 454.321C4295.91 453.488 4302.44 451.087 4304.33 449.711C4307.55 447.352 4312.15 442.295 4315.08 437.882C4318.33 432.975 4320.42 430.635 4325.23 426.472C4328.33 423.793 4329.77 421.511 4330.24 418.547C4330.5 416.918 4330.39 416.583 4329.26 415.692C4328.48 415.079 4327.3 414.683 4326.27 414.683C4323.78 414.683 4318.57 416.24 4317.02 417.445C4316.28 418.017 4314.94 418.986 4314.04 419.597C4311.79 421.122 4308.13 423.758 4305.6 425.679C4299.17 430.564 4285.96 439.274 4280.76 442.067C4270.79 447.422 4267.09 448.608 4257.93 449.38C4252.48 449.84 4250.59 449.809 4245.82 449.183C4240.81 448.526 4239.67 448.195 4235.87 446.291C4233.5 445.109 4231.48 443.998 4231.39 443.824C4231.29 443.649 4231.07 442.741 4230.9 441.805C4230.62 440.23 4230.69 440.087 4231.86 439.862C4232.68 439.706 4233.55 439.934 4234.33 440.509C4234.99 440.998 4237.19 441.716 4239.22 442.103C4241.25 442.491 4244.05 443.14 4245.45 443.547C4251.23 445.228 4266.08 443.239 4272.22 439.961C4273.64 439.204 4275.05 438.585 4275.34 438.585C4276.49 438.585 4283.17 433.849 4288.92 428.96C4299.75 419.744 4304.09 416.177 4305.13 415.639C4305.78 415.307 4306.73 414.665 4307.24 414.213C4307.76 413.761 4310.08 412.418 4312.4 411.229C4319.44 407.62 4325.07 407.013 4336.65 408.616C4341.84 409.333 4346.42 408.834 4349.62 407.205C4350.6 406.703 4353.81 405.67 4356.74 404.908C4362.55 403.402 4368.04 402.872 4386.92 402.002C4392.85 401.728 4400.02 401.191 4402.85 400.808C4405.69 400.425 4410.22 399.813 4412.93 399.449C4415.64 399.085 4420.49 398.152 4423.71 397.375C4433.15 395.099 4443.58 393.215 4451.13 392.423C4454.99 392.017 4460.9 391.18 4464.25 390.564C4467.6 389.947 4472.66 389.082 4475.5 388.641C4478.33 388.201 4481.46 387.557 4482.44 387.21C4483.43 386.863 4486.07 386.241 4488.3 385.827C4490.54 385.413 4493.26 384.686 4494.35 384.21C4495.44 383.734 4497.93 382.907 4499.88 382.371C4501.83 381.835 4503.9 381.101 4504.46 380.74C4505.03 380.378 4507.01 379.638 4508.85 379.095C4510.7 378.552 4512.8 377.803 4513.52 377.43C4514.24 377.057 4516.74 376.313 4519.07 375.777C4521.4 375.241 4524.46 374.232 4525.88 373.535L4528.46 372.268L4528.46 369.924C4528.47 367.149 4528.25 367.182 4534.77 368.969C4538.93 370.109 4539.48 370.155 4543.44 369.683C4552.23 368.636 4554.61 368.592 4557.46 369.42C4559.93 370.137 4560.63 370.682 4565.27 375.456C4568.08 378.342 4571.92 382.286 4573.81 384.219C4576.9 387.373 4580.87 390.122 4586 392.653C4586.72 393.007 4587.91 394.219 4588.66 395.347C4589.87 397.172 4589.96 397.564 4589.5 398.894C4588.46 401.917 4585.6 405.008 4581.9 407.113C4578.5 409.049 4578.2 409.131 4574.53 409.107C4571.42 409.087 4570.25 408.86 4568.33 407.911C4567.02 407.267 4564.82 406.304 4563.43 405.772C4562.04 405.239 4560.46 404.496 4559.92 404.119C4558.84 403.363 4554.8 403.258 4550.95 403.887C4549.67 404.098 4546.2 404.627 4543.26 405.063C4540.31 405.499 4536.72 406.247 4535.29 406.724C4530.02 408.476 4525.59 410.264 4523.54 411.472C4522.38 412.153 4521 412.838 4520.47 412.994C4518.81 413.486 4515.27 417.599 4514.37 420.073C4513.9 421.361 4513.25 422.838 4512.93 423.353C4511.98 424.874 4511.21 430.533 4511.51 433.739C4511.69 435.736 4512.25 437.599 4513.21 439.407C4515.68 444.094 4517.42 448.706 4518.14 452.429C4518.52 454.412 4519.07 456.323 4519.36 456.676C4520.23 457.729 4523.04 458.264 4527.76 458.276C4530.2 458.283 4535.37 458.708 4539.24 459.223C4543.1 459.737 4549.97 460.47 4554.5 460.851C4563.67 461.621 4566.97 462.145 4568.88 463.129C4569.59 463.496 4571.11 464.049 4572.26 464.358C4575.14 465.132 4581.52 468.388 4583.63 470.162C4587.56 473.456 4588.66 474.243 4590.24 474.905C4593.71 476.354 4599.23 480.439 4600.2 482.276C4600.84 483.471 4600.8 483.644 4599.57 485.016C4598.3 486.441 4598.13 486.487 4593.36 486.724C4588.83 486.948 4588.25 486.877 4585.87 485.788C4583.29 484.606 4581.39 483.012 4577.4 478.653C4572.13 472.897 4568.87 471.301 4561.18 470.717C4556.6 470.369 4555.36 470.671 4554.46 472.357C4554.05 473.12 4554.22 473.77 4555.37 475.776C4557.19 478.967 4557.59 482.291 4556.66 486.686C4556.16 489.028 4556.08 490.571 4556.37 491.841C4556.95 494.328 4556.92 496.901 4556.29 498.272L4555.77 499.419L4553.9 498.582C4551.46 497.49 4548.14 493.678 4547.74 491.501C4547.5 490.222 4547.71 489.198 4548.6 487.244C4550.1 483.972 4550.14 483.305 4549.12 478.188C4547.52 470.103 4547.65 470.166 4534.44 471.251C4529.09 471.691 4520.07 472.14 4514.4 472.25C4497 472.584 4497.27 472.595 4495.12 471.491C4492.78 470.283 4489.58 466.762 4488.22 463.894C4487.48 462.348 4486.69 461.519 4485.24 460.788C4483.36 459.837 4483.14 459.824 4480.32 460.488C4478.16 460.999 4475.84 461.116 4471.63 460.927C4465.73 460.663 4452.39 458.791 4447.38 457.524C4445.83 457.133 4441.89 456.205 4438.62 455.463C4435.35 454.721 4432.28 453.905 4431.8 453.65C4431.33 453.396 4428.54 452.735 4425.62 452.183C4422.69 451.631 4419.54 450.883 4418.6 450.521C4413.73 448.625 4396.94 447.607 4390.8 448.835C4387.99 449.398 4387.43 449.705 4385.53 451.738C4384.02 453.349 4383.4 454.405 4383.4 455.365C4383.4 458.304 4379.49 459.287 4376.34 457.141C4374.43 455.848 4371.66 455.449 4370.61 456.317C4370.22 456.643 4369.64 458.007 4369.32 459.347C4369.01 460.688 4368.44 462.399 4368.06 463.15C4367.68 463.901 4366.97 465.653 4366.5 467.043C4365.28 470.57 4362.95 473.988 4360.35 476.058C4358.56 477.487 4357.2 478.048 4353.08 479.055C4345.96 480.799 4343.03 481.137 4329.74 481.75C4319.02 482.244 4317.95 482.369 4317.2 483.22C4315.61 485.027 4316.18 486.736 4320.24 492.302C4320.83 493.105 4322.09 494.898 4323.05 496.286C4324.01 497.674 4325.65 499.864 4326.69 501.153C4327.73 502.442 4329.16 504.243 4329.87 505.155C4331.95 507.86 4334.75 510.136 4337.49 511.357C4339.97 512.466 4342.16 514.68 4342.16 516.076C4342.16 517.091 4338.97 519.307 4336.98 519.67C4335.53 519.936 4334.66 519.716 4332.03 518.417ZM4565.95 384.219C4565.95 383.304 4562.46 382.952 4561.93 383.813C4561.31 384.817 4561.96 385.213 4564 385.064C4565.36 384.965 4565.95 384.708 4565.95 384.219Z" fill="black"/>
</g>
<g clip-path="url(#clip9_0_1)">
<path d="M5198.56 307.395H4681.44V572.605H5198.56V307.395Z" stroke="black" stroke-width="2.46781"/>
<path d="M4761.84 513.047C4760.95 512.161 4760.86 511.672 4761.08 508.996C4761.42 504.729 4762.38 503.629 4768.97 500.013C4771.78 498.467 4776.81 493.219 4782.74 485.647C4786.26 481.155 4794.62 472.789 4795.59 472.789C4795.83 472.789 4796.64 472.271 4797.4 471.638C4798.89 470.382 4806.99 467.498 4811.1 466.761C4812.52 466.507 4814.31 466.049 4815.08 465.743L4816.49 465.187L4814.64 464.529C4813.62 464.167 4809.13 463.627 4804.67 463.33C4795.76 462.737 4784.36 463.325 4780.53 464.577C4775.79 466.13 4770.77 468.168 4767.28 469.963C4762.88 472.223 4760.34 473.926 4753.45 479.225C4748.98 482.664 4747.69 483.755 4745.97 485.561C4744.5 487.099 4744.02 487.318 4742.11 487.318C4740.02 487.318 4739.91 487.249 4739.37 485.612C4738.02 481.512 4740.19 474.534 4743.3 472.955C4744.12 472.544 4745.1 471.946 4745.48 471.625C4745.87 471.305 4747.24 470.65 4748.53 470.169C4753.72 468.235 4760.91 464.091 4764.31 461.072C4764.75 460.686 4766.01 459.605 4767.13 458.67C4768.24 457.735 4770 456.239 4771.03 455.344C4773.95 452.806 4777.68 450.398 4779.21 450.063C4779.97 449.895 4783.4 449.47 4786.83 449.119C4790.25 448.767 4796.66 448.047 4801.08 447.518C4808.97 446.571 4809.16 446.522 4813.33 444.324C4819.66 440.977 4823.28 438.865 4823.28 438.514C4823.28 438.341 4824.07 437.734 4825.04 437.164C4827.05 435.98 4827.04 435.989 4833.45 429.815C4836.07 427.287 4839.37 424.586 4840.76 423.813C4846.65 420.557 4848.67 419.202 4849.78 417.745C4852.06 414.746 4850.25 413.67 4843.89 414.252C4837.21 414.863 4837.72 414.717 4830.31 418.146C4828.9 418.803 4826.47 420.185 4824.92 421.218C4823.38 422.251 4821.49 423.468 4820.74 423.923C4819.98 424.378 4818.89 425.199 4818.31 425.747C4817.74 426.295 4816.56 427.233 4815.7 427.833C4814.85 428.433 4814.04 429.057 4813.91 429.22C4813.65 429.544 4809.47 432.355 4805.92 434.592C4804.69 435.366 4802.45 436.786 4800.95 437.748C4795.69 441.106 4790.08 443.416 4784.77 444.4C4782.54 444.814 4780.01 445.445 4779.15 445.802C4775.54 447.3 4765.26 447.854 4756.63 447.014C4751.51 446.516 4749.58 445.856 4747.71 443.968C4744.73 440.961 4746.73 440.241 4756.83 440.686C4765.44 441.065 4777.39 440.309 4780.4 439.195C4781.43 438.814 4783.84 437.998 4785.75 437.381C4788.96 436.343 4796.5 432.758 4797.04 432.01C4797.17 431.832 4798.18 431.121 4799.28 430.429C4800.38 429.738 4802.56 428.177 4804.13 426.961C4805.69 425.745 4807.43 424.447 4807.98 424.077C4808.54 423.706 4809.52 422.94 4810.16 422.373C4810.81 421.806 4811.97 421.022 4812.74 420.63C4813.51 420.239 4814.67 419.457 4815.32 418.892C4815.96 418.327 4817.12 417.539 4817.89 417.141C4818.67 416.743 4819.93 415.904 4820.71 415.278C4823.22 413.242 4825.34 411.889 4827.97 410.651C4829.39 409.983 4830.89 409.133 4831.3 408.762C4831.72 408.392 4833.3 407.661 4834.82 407.138C4836.34 406.616 4838.32 405.83 4839.22 405.393C4841.9 404.095 4851.17 404.287 4855.28 405.726C4858.89 406.991 4861.5 406.899 4865 405.385C4866.16 404.882 4869.53 404.114 4872.49 403.678C4875.46 403.242 4878.91 402.59 4880.16 402.228C4881.42 401.866 4886.27 401.352 4890.94 401.086C4908.34 400.095 4914.04 399.66 4915.62 399.202C4916.52 398.943 4920.63 398.326 4924.75 397.83C4932.33 396.92 4932.99 396.787 4935.53 395.684C4936.3 395.348 4939.98 394.508 4943.69 393.818C4947.41 393.128 4950.92 392.383 4951.5 392.164C4952.7 391.71 4957.2 391.063 4966 390.083C4978.72 388.664 4993.52 386.559 4997.03 385.668C4999.04 385.159 5002.86 384.392 5005.53 383.963C5008.2 383.535 5011.1 382.882 5011.99 382.513C5012.87 382.144 5015.42 381.407 5017.66 380.876C5019.9 380.344 5022.49 379.522 5023.42 379.049C5024.35 378.576 5026.44 377.844 5028.06 377.422C5029.69 377 5031.47 376.363 5032.02 376.007C5032.57 375.651 5034.7 374.9 5036.75 374.338C5038.81 373.777 5040.93 373.025 5041.48 372.667C5042.02 372.31 5044.28 371.622 5046.48 371.14C5051.32 370.084 5051.53 369.968 5051.53 368.364C5051.53 367.671 5051.75 366.333 5052.01 365.392C5052.48 363.711 5052.52 363.684 5054.47 363.909C5056.93 364.194 5060.83 365.389 5062.06 366.233C5063.37 367.134 5065.89 367.021 5068.76 365.931C5072.45 364.527 5074.5 364.71 5078.95 366.847C5081.08 367.866 5083.11 368.993 5083.47 369.351C5083.83 369.71 5085.02 370.571 5086.12 371.266C5088.06 372.491 5094.18 378.432 5094.18 379.093C5094.18 379.274 5094.98 380.394 5095.96 381.584C5097.82 383.824 5100.52 385.775 5104.96 388.062C5109.99 390.658 5111.34 391.722 5112.99 394.394C5113.82 395.741 5113.87 396.132 5113.37 397.682C5112.42 400.62 5109.18 403.969 5105.36 405.971C5102.11 407.677 5101.71 407.768 5097.8 407.731C5094.46 407.699 5093.2 407.474 5091.23 406.552C5087.43 404.777 5077.91 402.488 5074.34 402.488C5070.46 402.488 5055.51 405.395 5053.09 406.619C5052.1 407.117 5050.09 407.871 5048.62 408.293C5047.15 408.716 5045.82 409.27 5045.67 409.524C5045.51 409.777 5044.23 410.532 5042.81 411.201C5038.24 413.363 5034.19 419.452 5034.19 424.156C5034.19 426.066 5035.3 427.992 5038.74 432.015C5040.39 433.948 5042.31 436.231 5043 437.088C5047.81 443.017 5050.8 445.39 5055.51 447.013C5057 447.525 5058.49 448.164 5058.81 448.432C5059.13 448.7 5060.95 449.349 5062.84 449.874C5064.74 450.4 5066.92 451.216 5067.7 451.688C5068.47 452.161 5070.25 452.883 5071.64 453.293C5073.04 453.704 5074.66 454.354 5075.25 454.739C5075.84 455.123 5077.96 455.882 5079.98 456.425C5081.99 456.968 5084.09 457.705 5084.66 458.063C5085.22 458.421 5087.97 459.25 5090.75 459.905C5093.54 460.561 5096.66 461.399 5097.69 461.768C5098.72 462.137 5101.36 462.788 5103.55 463.215C5105.74 463.641 5108.59 464.377 5109.88 464.849C5113.9 466.323 5119.51 466.838 5124.9 466.226C5130.06 465.639 5132.57 465.986 5134.51 467.558C5135.51 468.373 5135.53 468.488 5134.87 470.465C5133.8 473.671 5128.33 477.36 5124 477.799C5121.58 478.044 5112.62 476.656 5109.9 475.613C5108.16 474.946 5097.4 473.27 5094.82 473.263C5092.01 473.256 5091.45 474.148 5092.68 476.662C5093.22 477.754 5093.99 480.019 5094.41 481.694C5094.82 483.37 5095.4 485.664 5095.7 486.793C5096.2 488.705 5096.16 488.907 5095.16 489.723C5092.86 491.584 5088.63 490.217 5087.03 487.092C5086.41 485.883 5085.98 483.952 5085.84 481.694C5085.69 479.213 5085.3 477.602 5084.53 476.218C5083.11 473.636 5080.29 471.047 5078.24 470.445C5073.23 468.968 5048.24 467.405 5040.98 468.115C5029.74 469.216 5028.08 469.218 5024.45 468.135C5021.62 467.29 5020.45 466.606 5017.57 464.093C5015.66 462.429 5013.28 460.106 5012.28 458.93C5010.08 456.361 5007.66 455.555 5005.49 456.674C5003.54 457.682 4996.62 458.372 4992.01 458.018C4985.27 457.501 4978.32 456.446 4975.28 455.479C4973.69 454.971 4970.09 454.236 4967.29 453.846C4964.49 453.455 4961.44 452.817 4960.5 452.427C4959.57 452.037 4956.1 451.386 4952.79 450.981C4949.49 450.576 4945.13 449.825 4943.12 449.314C4939.66 448.436 4931.58 447.426 4922.64 446.758C4919.95 446.557 4917.07 446.703 4913.76 447.207C4909.5 447.856 4908.52 448.184 4906.28 449.72C4904.14 451.184 4903.62 451.823 4903.21 453.455C4902.2 457.528 4899.43 458.275 4894.06 455.92C4891.23 454.679 4889.84 454.372 4886.13 454.172C4880.12 453.849 4878.54 454.342 4874.98 457.661C4870.72 461.639 4868.61 463.47 4866.33 465.152C4865.21 465.978 4863.27 467.419 4862.01 468.353C4860.76 469.288 4856.72 471.504 4853.03 473.278C4847.64 475.877 4845.53 476.639 4842.19 477.195C4834.74 478.437 4831.54 478.869 4827.97 479.112C4826.04 479.243 4820.98 479.581 4816.72 479.862C4812.47 480.143 4807.62 480.657 4805.94 481.004C4802.2 481.778 4796.68 483.988 4794.71 485.494C4789.95 489.154 4784.66 494.095 4778.55 500.592C4772.4 507.143 4767.02 511.878 4763.89 513.51C4763.01 513.968 4762.69 513.895 4761.84 513.047ZM5087.85 383.552L5089.26 382.935L5087.49 382.075C5085.85 381.277 5085.67 381.271 5084.95 381.986C5084.32 382.622 5084.29 382.883 5084.78 383.483C5085.51 384.352 5086 384.363 5087.85 383.552Z" fill="black"/>
</g>
<defs>
<clipPath id="clip0_0_1">
<rect width="520" height="880" fill="white"/>
</clipPath>
<clipPath id="clip1_0_1">
<rect width="520" height="880" fill="white" transform="translate(520)"/>
</clipPath>
<clipPath id="clip2_0_1">
<rect width="520" height="880" fill="white" transform="translate(1040)"/>
</clipPath>
<clipPath id="clip3_0_1">
<rect width="520" height="880" fill="white" transform="translate(1560)"/>
</clipPath>
<clipPath id="clip4_0_1">
<rect width="520" height="880" fill="white" transform="translate(2080)"/>
</clipPath>
<clipPath id="clip5_0_1">
<rect width="520" height="880" fill="white" transform="translate(2600)"/>
</clipPath>
<clipPath id="clip6_0_1">
<rect width="520" height="880" fill="white" transform="translate(3120)"/>
</clipPath>
<clipPath id="clip7_0_1">
<rect width="520" height="880" fill="white" transform="translate(3640)"/>
</clipPath>
<clipPath id="clip8_0_1">
<rect width="520" height="880" fill="white" transform="translate(4160)"/>
</clipPath>
<clipPath id="clip9_0_1">
<rect width="520" height="880" fill="white" transform="translate(4680)"/>
</clipPath>
</defs>
</svg>
